STARTFONT 2.1
COMMENT ter-u32b
FONT -xos4-Terminus-Bold-R-Normal--32-320-72-72-C-160-ISO10646-1
SIZE 32 72 72
FONTBOUNDINGBOX 16 32 0 -6
STARTPROPERTIES 5
COPYRIGHT "Copyright (C) 2014 Dimitar Toshkov Zhekov"
NOTICE "Licensed under the SIL Open Font License, Version 1.1"
_GBDFED_INFO "Edited with gbdfed 1.6."
FONT_ASCENT 26
FONT_DESCENT 6
ENDPROPERTIES
CHARS 96
STARTCHAR char0
ENCODING 0
SWIDTH 500 0
DWIDTH 16 0
BBX 16 32 0 -6
BITMAP
0000
0000
0000
0000
0000
0000
7C7C
7C7C
701C
701C
701C
0000
0000
0000
701C
701C
701C
701C
0000
0000
0000
701C
701C
701C
7C7C
7C7C
0000
0000
0000
0000
0000
0000
ENDCHAR
STARTCHAR space
ENCODING 32
SWIDTH 500 0
DWIDTH 16 0
BBX 16 32 0 -6
BITMAP
0000
0000
0000
0000
0000
0000
0000
0000
0000
0000
0000
0000
0000
0000
0000
0000
0000
0000
0000
0000
0000
0000
0000
0000
0000
0000
0000
0000
0000
0000
0000
0000
ENDCHAR
STARTCHAR exclam
ENCODING 33
SWIDTH 500 0
DWIDTH 16 0
BBX 16 32 0 -6
BITMAP
0000
0000
0000
0000
0000
0000
0380
0380
0380
0380
0380
0380
0380
0380
0380
0380
0380
0380
0380
0000
0000
0000
0380
0380
0380
0380
0000
0000
0000
0000
0000
0000
ENDCHAR
STARTCHAR quotedbl
ENCODING 34
SWIDTH 500 0
DWIDTH 16 0
BBX 16 32 0 -6
BITMAP
0000
0000
0000
0000
1C70
1C70
1C70
1C70
1C70
1C70
0000
0000
0000
0000
0000
0000
0000
0000
0000
0000
0000
0000
0000
0000
0000
0000
0000
0000
0000
0000
0000
0000
ENDCHAR
STARTCHAR numbersign
ENCODING 35
SWIDTH 500 0
DWIDTH 16 0
BBX 16 32 0 -6
BITMAP
0000
0000
0000
0000
0000
0000
1C70
1C70
1C70
1C70
1C70
7FFC
7FFC
1C70
1C70
1C70
1C70
1C70
1C70
7FFC
7FFC
1C70
1C70
1C70
1C70
1C70
0000
0000
0000
0000
0000
0000
ENDCHAR
STARTCHAR dollar
ENCODING 36
SWIDTH 500 0
DWIDTH 16 0
BBX 16 32 0 -6
BITMAP
0000
0000
0000
0000
0380
0380
0380
1FF0
3FF8
7BBC
739C
7380
7380
7380
7B80
3FF0
1FF8
03BC
039C
039C
039C
739C
7BBC
3FF8
1FF0
0380
0380
0380
0000
0000
0000
0000
ENDCHAR
STARTCHAR percent
ENCODING 37
SWIDTH 500 0
DWIDTH 16 0
BBX 16 32 0 -6
BITMAP
0000
0000
0000
0000
0000
0000
1F1C
3F9C
3BB8
3BB8
3FF0
1F70
00E0
00E0
01C0
01C0
0380
0380
0700
0700
0EF8
0FFC
1DDC
1DDC
39FC
38F8
0000
0000
0000
0000
0000
0000
ENDCHAR
STARTCHAR ampersand
ENCODING 38
SWIDTH 500 0
DWIDTH 16 0
BBX 16 32 0 -6
BITMAP
0000
0000
0000
0000
0000
0000
0FC0
1FE0
3870
3870
3870
3870
3870
1CE0
0FC0
0F80
1FCE
38EE
707C
7038
7038
7038
7038
787C
3FEE
1FCE
0000
0000
0000
0000
0000
0000
ENDCHAR
STARTCHAR quotesingle
ENCODING 39
SWIDTH 500 0
DWIDTH 16 0
BBX 16 32 0 -6
BITMAP
0000
0000
0000
0000
0380
0380
0380
0380
0380
0380
0000
0000
0000
0000
0000
0000
0000
0000
0000
0000
0000
0000
0000
0000
0000
0000
0000
0000
0000
0000
0000
0000
ENDCHAR
STARTCHAR parenleft
ENCODING 40
SWIDTH 500 0
DWIDTH 16 0
BBX 16 32 0 -6
BITMAP
0000
0000
0000
0000
0000
0000
00E0
01C0
0380
0700
0700
0E00
0E00
0E00
0E00
0E00
0E00
0E00
0E00
0E00
0E00
0700
0700
0380
01C0
00E0
0000
0000
0000
0000
0000
0000
ENDCHAR
STARTCHAR parenright
ENCODING 41
SWIDTH 500 0
DWIDTH 16 0
BBX 16 32 0 -6
BITMAP
0000
0000
0000
0000
0000
0000
0E00
0700
0380
01C0
01C0
00E0
00E0
00E0
00E0
00E0
00E0
00E0
00E0
00E0
00E0
01C0
01C0
0380
0700
0E00
0000
0000
0000
0000
0000
0000
ENDCHAR
STARTCHAR asterisk
ENCODING 42
SWIDTH 500 0
DWIDTH 16 0
BBX 16 32 0 -6
BITMAP
0000
0000
0000
0000
0000
0000
0000
0000
0000
0000
3838
1C70
0EE0
07C0
0380
7FFC
7FFC
0380
07C0
0EE0
1C70
3838
0000
0000
0000
0000
0000
0000
0000
0000
0000
0000
ENDCHAR
STARTCHAR plus
ENCODING 43
SWIDTH 500 0
DWIDTH 16 0
BBX 16 32 0 -6
BITMAP
0000
0000
0000
0000
0000
0000
0000
0000
0000
0000
0380
0380
0380
0380
0380
7FFC
7FFC
0380
0380
0380
0380
0380
0000
0000
0000
0000
0000
0000
0000
0000
0000
0000
ENDCHAR
STARTCHAR comma
ENCODING 44
SWIDTH 500 0
DWIDTH 16 0
BBX 16 32 0 -6
BITMAP
0000
0000
0000
0000
0000
0000
0000
0000
0000
0000
0000
0000
0000
0000
0000
0000
0000
0000
0000
0000
0000
0000
0380
0380
0380
0380
0700
0E00
0000
0000
0000
0000
ENDCHAR
STARTCHAR hyphen
ENCODING 45
SWIDTH 500 0
DWIDTH 16 0
BBX 16 32 0 -6
BITMAP
0000
0000
0000
0000
0000
0000
0000
0000
0000
0000
0000
0000
0000
0000
0000
7FFC
7FFC
0000
0000
0000
0000
0000
0000
0000
0000
0000
0000
0000
0000
0000
0000
0000
ENDCHAR
STARTCHAR period
ENCODING 46
SWIDTH 500 0
DWIDTH 7 0
BBX 7 32 0 -6
BITMAP
0000
0000
0000
0000
0000
0000
0000
0000
0000
0000
0000
0000
0000
0000
0000
0000
0000
0000
0000
0000
0000
0000
3800
3800
3800
3800
0000
0000
0000
0000
0000
0000
ENDCHAR
STARTCHAR slash
ENCODING 47
SWIDTH 500 0
DWIDTH 16 0
BBX 16 32 0 -6
BITMAP
0000
0000
0000
0000
0000
0000
001C
001C
0038
0038
0070
0070
00E0
00E0
01C0
01C0
0380
0380
0700
0700
0E00
0E00
1C00
1C00
3800
3800
0000
0000
0000
0000
0000
0000
ENDCHAR
STARTCHAR zero
ENCODING 48
SWIDTH 500 0
DWIDTH 16 0
BBX 16 32 0 -6
BITMAP
0000
0000
0000
0000
0000
0000
1FF0
3FF8
783C
701C
701C
703C
707C
70FC
71DC
739C
771C
7E1C
7C1C
781C
701C
701C
701C
783C
3FF8
1FF0
0000
0000
0000
0000
0000
0000
ENDCHAR
STARTCHAR one
ENCODING 49
SWIDTH 500 0
DWIDTH 16 0
BBX 16 32 0 -6
BITMAP
0000
0000
0000
0000
0000
0000
0380
0780
0F80
1F80
1F80
0380
0380
0380
0380
0380
0380
0380
0380
0380
0380
0380
0380
0380
1FF0
1FF0
0000
0000
0000
0000
0000
0000
ENDCHAR
STARTCHAR two
ENCODING 50
SWIDTH 500 0
DWIDTH 16 0
BBX 16 32 0 -6
BITMAP
0000
0000
0000
0000
0000
0000
1FF0
3FF8
783C
701C
701C
701C
701C
001C
0038
0070
00E0
01C0
0380
0700
0E00
1C00
3800
7000
7FFC
7FFC
0000
0000
0000
0000
0000
0000
ENDCHAR
STARTCHAR three
ENCODING 51
SWIDTH 500 0
DWIDTH 16 0
BBX 16 32 0 -6
BITMAP
0000
0000
0000
0000
0000
0000
1FF0
3FF8
783C
701C
701C
001C
001C
001C
003C
0FF8
0FF8
003C
001C
001C
001C
701C
701C
783C
3FF8
1FF0
0000
0000
0000
0000
0000
0000
ENDCHAR
STARTCHAR four
ENCODING 52
SWIDTH 500 0
DWIDTH 16 0
BBX 16 32 0 -6
BITMAP
0000
0000
0000
0000
0000
0000
001C
003C
007C
00FC
01DC
039C
071C
0E1C
1C1C
381C
701C
701C
701C
7FFC
7FFC
001C
001C
001C
001C
001C
0000
0000
0000
0000
0000
0000
ENDCHAR
STARTCHAR five
ENCODING 53
SWIDTH 500 0
DWIDTH 16 0
BBX 16 32 0 -6
BITMAP
0000
0000
0000
0000
0000
0000
7FFC
7FFC
7000
7000
7000
7000
7000
7000
7FF0
7FF8
003C
001C
001C
001C
001C
001C
701C
781C
3FF8
1FF0
0000
0000
0000
0000
0000
0000
ENDCHAR
STARTCHAR six
ENCODING 54
SWIDTH 500 0
DWIDTH 16 0
BBX 16 32 0 -6
BITMAP
0000
0000
0000
0000
0000
0000
1FF8
3FF8
7800
7000
7000
7000
7000
7000
7FF0
7FF8
703C
701C
701C
701C
701C
701C
701C
783C
3FF8
1FF0
0000
0000
0000
0000
0000
0000
ENDCHAR
STARTCHAR seven
ENCODING 55
SWIDTH 500 0
DWIDTH 16 0
BBX 16 32 0 -6
BITMAP
0000
0000
0000
0000
0000
0000
7FFC
7FFC
701C
701C
701C
7038
0038
0070
0070
00E0
00E0
01C0
01C0
0380
0380
0380
0380
0380
0380
0380
0000
0000
0000
0000
0000
0000
ENDCHAR
STARTCHAR eight
ENCODING 56
SWIDTH 500 0
DWIDTH 16 0
BBX 16 32 0 -6
BITMAP
0000
0000
0000
0000
0000
0000
1FF0
3FF8
783C
701C
701C
701C
701C
701C
783C
3FF8
3FF8
783C
701C
701C
701C
701C
701C
783C
3FF8
1FF0
0000
0000
0000
0000
0000
0000
ENDCHAR
STARTCHAR nine
ENCODING 57
SWIDTH 500 0
DWIDTH 16 0
BBX 16 32 0 -6
BITMAP
0000
0000
0000
0000
0000
0000
1FF0
3FF8
783C
701C
701C
701C
701C
701C
701C
781C
3FFC
1FFC
001C
001C
001C
001C
001C
003C
3FF8
3FF0
0000
0000
0000
0000
0000
0000
ENDCHAR
STARTCHAR colon
ENCODING 58
SWIDTH 500 0
DWIDTH 16 0
BBX 16 32 0 -6
BITMAP
0000
0000
0000
0000
0000
0000
0000
0000
0000
0000
0000
0000
0380
0380
0380
0380
0000
0000
0000
0000
0000
0000
0380
0380
0380
0380
0000
0000
0000
0000
0000
0000
ENDCHAR
STARTCHAR semicolon
ENCODING 59
SWIDTH 500 0
DWIDTH 16 0
BBX 16 32 0 -6
BITMAP
0000
0000
0000
0000
0000
0000
0000
0000
0000
0000
0000
0000
0380
0380
0380
0380
0000
0000
0000
0000
0000
0000
0380
0380
0380
0380
0700
0E00
0000
0000
0000
0000
ENDCHAR
STARTCHAR less
ENCODING 60
SWIDTH 500 0
DWIDTH 16 0
BBX 16 32 0 -6
BITMAP
0000
0000
0000
0000
0000
0000
001C
0038
0070
00E0
01C0
0380
0700
0E00
1C00
3800
3800
1C00
0E00
0700
0380
01C0
00E0
0070
0038
001C
0000
0000
0000
0000
0000
0000
ENDCHAR
STARTCHAR equal
ENCODING 61
SWIDTH 500 0
DWIDTH 16 0
BBX 16 32 0 -6
BITMAP
0000
0000
0000
0000
0000
0000
0000
0000
0000
0000
0000
0000
7FFC
7FFC
0000
0000
0000
0000
7FFC
7FFC
0000
0000
0000
0000
0000
0000
0000
0000
0000
0000
0000
0000
ENDCHAR
STARTCHAR greater
ENCODING 62
SWIDTH 500 0
DWIDTH 16 0
BBX 16 32 0 -6
BITMAP
0000
0000
0000
0000
0000
0000
3800
1C00
0E00
0700
0380
01C0
00E0
0070
0038
001C
001C
0038
0070
00E0
01C0
0380
0700
0E00
1C00
3800
0000
0000
0000
0000
0000
0000
ENDCHAR
STARTCHAR question
ENCODING 63
SWIDTH 500 0
DWIDTH 16 0
BBX 16 32 0 -6
BITMAP
0000
0000
0000
0000
0000
0000
1FF0
3FF8
783C
701C
701C
701C
701C
0038
0070
00E0
01C0
0380
0380
0380
0000
0000
0380
0380
0380
0380
0000
0000
0000
0000
0000
0000
ENDCHAR
STARTCHAR at
ENCODING 64
SWIDTH 500 0
DWIDTH 16 0
BBX 16 32 0 -6
BITMAP
0000
0000
0000
0000
0000
0000
1FF8
3FFC
780E
7006
71FE
73FE
778E
770E
770E
770E
770E
770E
770E
779E
73FE
71F6
7000
7800
3FFE
1FFE
0000
0000
0000
0000
0000
0000
ENDCHAR
STARTCHAR A
ENCODING 65
SWIDTH 500 0
DWIDTH 16 0
BBX 16 32 0 -6
BITMAP
0000
0000
0000
0000
0000
0000
1FF0
3FF8
783C
701C
701C
701C
701C
701C
701C
701C
7FFC
7FFC
701C
701C
701C
701C
701C
701C
701C
701C
0000
0000
0000
0000
0000
0000
ENDCHAR
STARTCHAR B
ENCODING 66
SWIDTH 500 0
DWIDTH 16 0
BBX 16 32 0 -6
BITMAP
0000
0000
0000
0000
0000
0000
7FF0
7FF8
703C
701C
701C
701C
701C
7038
7FF0
7FF0
7038
701C
701C
701C
701C
701C
701C
703C
7FF8
7FF0
0000
0000
0000
0000
0000
0000
ENDCHAR
STARTCHAR C
ENCODING 67
SWIDTH 500 0
DWIDTH 16 0
BBX 16 32 0 -6
BITMAP
0000
0000
0000
0000
0000
0000
1FF0
3FF8
783C
701C
701C
7000
7000
7000
7000
7000
7000
7000
7000
7000
7000
701C
701C
783C
3FF8
1FF0
0000
0000
0000
0000
0000
0000
ENDCHAR
STARTCHAR D
ENCODING 68
SWIDTH 500 0
DWIDTH 16 0
BBX 16 32 0 -6
BITMAP
0000
0000
0000
0000
0000
0000
7FC0
7FF0
7078
7038
701C
701C
701C
701C
701C
701C
701C
701C
701C
701C
701C
701C
7038
7078
7FF0
7FC0
0000
0000
0000
0000
0000
0000
ENDCHAR
STARTCHAR E
ENCODING 69
SWIDTH 500 0
DWIDTH 16 0
BBX 16 32 0 -6
BITMAP
0000
0000
0000
0000
0000
0000
7FFC
7FFC
7000
7000
7000
7000
7000
7000
7000
7FE0
7FE0
7000
7000
7000
7000
7000
7000
7000
7FFC
7FFC
0000
0000
0000
0000
0000
0000
ENDCHAR
STARTCHAR F
ENCODING 70
SWIDTH 500 0
DWIDTH 16 0
BBX 16 32 0 -6
BITMAP
0000
0000
0000
0000
0000
0000
7FFC
7FFC
7000
7000
7000
7000
7000
7000
7000
7FE0
7FE0
7000
7000
7000
7000
7000
7000
7000
7000
7000
0000
0000
0000
0000
0000
0000
ENDCHAR
STARTCHAR G
ENCODING 71
SWIDTH 500 0
DWIDTH 16 0
BBX 16 32 0 -6
BITMAP
0000
0000
0000
0000
0000
0000
1FF0
3FF8
783C
701C
701C
7000
7000
7000
7000
71FC
71FC
701C
701C
701C
701C
701C
701C
783C
3FF8
1FF0
0000
0000
0000
0000
0000
0000
ENDCHAR
STARTCHAR H
ENCODING 72
SWIDTH 500 0
DWIDTH 16 0
BBX 16 32 0 -6
BITMAP
0000
0000
0000
0000
0000
0000
701C
701C
701C
701C
701C
701C
701C
701C
701C
7FFC
7FFC
701C
701C
701C
701C
701C
701C
701C
701C
701C
0000
0000
0000
0000
0000
0000
ENDCHAR
STARTCHAR I
ENCODING 73
SWIDTH 500 0
DWIDTH 16 0
BBX 16 32 0 -6
BITMAP
0000
0000
0000
0000
0000
0000
0FE0
0FE0
0380
0380
0380
0380
0380
0380
0380
0380
0380
0380
0380
0380
0380
0380
0380
0380
0FE0
0FE0
0000
0000
0000
0000
0000
0000
ENDCHAR
STARTCHAR J
ENCODING 74
SWIDTH 500 0
DWIDTH 16 0
BBX 16 32 0 -6
BITMAP
0000
0000
0000
0000
0000
0000
00FE
00FE
0038
0038
0038
0038
0038
0038
0038
0038
0038
0038
0038
0038
7038
7038
7038
7878
3FF0
1FE0
0000
0000
0000
0000
0000
0000
ENDCHAR
STARTCHAR K
ENCODING 75
SWIDTH 500 0
DWIDTH 16 0
BBX 16 32 0 -6
BITMAP
0000
0000
0000
0000
0000
0000
700C
701C
7038
7070
70E0
71C0
7380
7700
7E00
7C00
7C00
7E00
7700
7380
71C0
70E0
7070
7038
701C
700C
0000
0000
0000
0000
0000
0000
ENDCHAR
STARTCHAR L
ENCODING 76
SWIDTH 500 0
DWIDTH 16 0
BBX 16 32 0 -6
BITMAP
0000
0000
0000
0000
0000
0000
7000
7000
7000
7000
7000
7000
7000
7000
7000
7000
7000
7000
7000
7000
7000
7000
7000
7000
7FFC
7FFC
0000
0000
0000
0000
0000
0000
ENDCHAR
STARTCHAR M
ENCODING 77
SWIDTH 500 0
DWIDTH 16 0
BBX 16 32 0 -6
BITMAP
0000
0000
0000
0000
0000
0000
700E
700E
781E
7C3E
7E7E
7E7E
77EE
73CE
73CE
718E
700E
700E
700E
700E
700E
700E
700E
700E
700E
700E
0000
0000
0000
0000
0000
0000
ENDCHAR
STARTCHAR N
ENCODING 78
SWIDTH 500 0
DWIDTH 16 0
BBX 16 32 0 -6
BITMAP
0000
0000
0000
0000
0000
0000
701C
701C
701C
701C
701C
781C
7C1C
7E1C
771C
739C
71DC
70FC
707C
703C
701C
701C
701C
701C
701C
701C
0000
0000
0000
0000
0000
0000
ENDCHAR
STARTCHAR O
ENCODING 79
SWIDTH 500 0
DWIDTH 16 0
BBX 16 32 0 -6
BITMAP
0000
0000
0000
0000
0000
0000
1FF0
3FF8
783C
701C
701C
701C
701C
701C
701C
701C
701C
701C
701C
701C
701C
701C
701C
783C
3FF8
1FF0
0000
0000
0000
0000
0000
0000
ENDCHAR
STARTCHAR P
ENCODING 80
SWIDTH 500 0
DWIDTH 16 0
BBX 16 32 0 -6
BITMAP
0000
0000
0000
0000
0000
0000
7FF0
7FF8
703C
701C
701C
701C
701C
701C
701C
703C
7FF8
7FF0
7000
7000
7000
7000
7000
7000
7000
7000
0000
0000
0000
0000
0000
0000
ENDCHAR
STARTCHAR Q
ENCODING 81
SWIDTH 500 0
DWIDTH 16 0
BBX 16 32 0 -6
BITMAP
0000
0000
0000
0000
0000
0000
1FF0
3FF8
783C
701C
701C
701C
701C
701C
701C
701C
701C
701C
701C
701C
701C
701C
739C
79FC
3FF8
1FF0
0038
001C
0000
0000
0000
0000
ENDCHAR
STARTCHAR R
ENCODING 82
SWIDTH 500 0
DWIDTH 16 0
BBX 16 32 0 -6
BITMAP
0000
0000
0000
0000
0000
0000
7FF0
7FF8
703C
701C
701C
701C
701C
701C
701C
703C
7FF8
7FF0
7E00
7700
7380
71C0
70E0
7070
7038
701C
0000
0000
0000
0000
0000
0000
ENDCHAR
STARTCHAR S
ENCODING 83
SWIDTH 500 0
DWIDTH 16 0
BBX 16 32 0 -6
BITMAP
0000
0000
0000
0000
0000
0000
1FF0
3FF8
783C
701C
701C
7000
7000
7000
7800
3FF0
1FF8
003C
001C
001C
001C
701C
701C
783C
3FF8
1FF0
0000
0000
0000
0000
0000
0000
ENDCHAR
STARTCHAR T
ENCODING 84
SWIDTH 500 0
DWIDTH 16 0
BBX 16 32 0 -6
BITMAP
0000
0000
0000
0000
0000
0000
7FFC
7FFC
0380
0380
0380
0380
0380
0380
0380
0380
0380
0380
0380
0380
0380
0380
0380
0380
0380
0380
0000
0000
0000
0000
0000
0000
ENDCHAR
STARTCHAR U
ENCODING 85
SWIDTH 500 0
DWIDTH 16 0
BBX 16 32 0 -6
BITMAP
0000
0000
0000
0000
0000
0000
701C
701C
701C
701C
701C
701C
701C
701C
701C
701C
701C
701C
701C
701C
701C
701C
701C
783C
3FF8
1FF0
0000
0000
0000
0000
0000
0000
ENDCHAR
STARTCHAR V
ENCODING 86
SWIDTH 500 0
DWIDTH 16 0
BBX 16 32 0 -6
BITMAP
0000
0000
0000
0000
0000
0000
701C
701C
701C
701C
701C
3838
3838
3838
3838
3838
1C70
1C70
1C70
1C70
0EE0
0EE0
0EE0
07C0
07C0
07C0
0000
0000
0000
0000
0000
0000
ENDCHAR
STARTCHAR W
ENCODING 87
SWIDTH 500 0
DWIDTH 16 0
BBX 16 32 0 -6
BITMAP
0000
0000
0000
0000
0000
0000
700E
700E
700E
700E
700E
700E
700E
700E
700E
700E
718E
73CE
73CE
77EE
7E7E
7E7E
7C3E
781E
700E
700E
0000
0000
0000
0000
0000
0000
ENDCHAR
STARTCHAR X
ENCODING 88
SWIDTH 500 0
DWIDTH 16 0
BBX 16 32 0 -6
BITMAP
0000
0000
0000
0000
0000
0000
701C
701C
3838
3838
1C70
1C70
0EE0
0EE0
07C0
07C0
07C0
07C0
0EE0
0EE0
1C70
1C70
3838
3838
701C
701C
0000
0000
0000
0000
0000
0000
ENDCHAR
STARTCHAR Y
ENCODING 89
SWIDTH 500 0
DWIDTH 16 0
BBX 16 32 0 -6
BITMAP
0000
0000
0000
0000
0000
0000
701C
701C
701C
3838
3838
1C70
1C70
0EE0
0EE0
07C0
07C0
0380
0380
0380
0380
0380
0380
0380
0380
0380
0000
0000
0000
0000
0000
0000
ENDCHAR
STARTCHAR Z
ENCODING 90
SWIDTH 500 0
DWIDTH 16 0
BBX 16 32 0 -6
BITMAP
0000
0000
0000
0000
0000
0000
7FFC
7FFC
001C
001C
001C
0038
0070
00E0
01C0
0380
0700
0E00
1C00
3800
7000
7000
7000
7000
7FFC
7FFC
0000
0000
0000
0000
0000
0000
ENDCHAR
STARTCHAR bracketleft
ENCODING 91
SWIDTH 500 0
DWIDTH 16 0
BBX 16 32 0 -6
BITMAP
0000
0000
0000
0000
0000
0000
0FF0
0FF0
0E00
0E00
0E00
0E00
0E00
0E00
0E00
0E00
0E00
0E00
0E00
0E00
0E00
0E00
0E00
0E00
0FF0
0FF0
0000
0000
0000
0000
0000
0000
ENDCHAR
STARTCHAR backslash
ENCODING 92
SWIDTH 500 0
DWIDTH 16 0
BBX 16 32 0 -6
BITMAP
0000
0000
0000
0000
0000
0000
3800
3800
1C00
1C00
0E00
0E00
0700
0700
0380
0380
01C0
01C0
00E0
00E0
0070
0070
0038
0038
001C
001C
0000
0000
0000
0000
0000
0000
ENDCHAR
STARTCHAR bracketright
ENCODING 93
SWIDTH 500 0
DWIDTH 16 0
BBX 16 32 0 -6
BITMAP
0000
0000
0000
0000
0000
0000
0FF0
0FF0
0070
0070
0070
0070
0070
0070
0070
0070
0070
0070
0070
0070
0070
0070
0070
0070
0FF0
0FF0
0000
0000
0000
0000
0000
0000
ENDCHAR
STARTCHAR asciicircum
ENCODING 94
SWIDTH 500 0
DWIDTH 16 0
BBX 16 32 0 -6
BITMAP
0000
0000
0000
0000
0380
07C0
0EE0
1C70
3838
701C
0000
0000
0000
0000
0000
0000
0000
0000
0000
0000
0000
0000
0000
0000
0000
0000
0000
0000
0000
0000
0000
0000
ENDCHAR
STARTCHAR underscore
ENCODING 95
SWIDTH 500 0
DWIDTH 16 0
BBX 16 32 0 -6
BITMAP
0000
0000
0000
0000
0000
0000
0000
0000
0000
0000
0000
0000
0000
0000
0000
0000
0000
0000
0000
0000
0000
0000
0000
0000
0000
0000
0000
7FFC
7FFC
0000
0000
0000
ENDCHAR
STARTCHAR grave
ENCODING 96
SWIDTH 500 0
DWIDTH 16 0
BBX 16 32 0 -6
BITMAP
0000
1C00
0E00
0700
0380
0000
0000
0000
0000
0000
0000
0000
0000
0000
0000
0000
0000
0000
0000
0000
0000
0000
0000
0000
0000
0000
0000
0000
0000
0000
0000
0000
ENDCHAR
STARTCHAR a
ENCODING 97
SWIDTH 500 0
DWIDTH 16 0
BBX 16 32 0 -6
BITMAP
0000
0000
0000
0000
0000
0000
0000
0000
0000
0000
0000
0000
3FF0
3FF8
003C
001C
001C
1FFC
3FFC
781C
701C
701C
701C
781C
3FFC
1FFC
0000
0000
0000
0000
0000
0000
ENDCHAR
STARTCHAR b
ENCODING 98
SWIDTH 500 0
DWIDTH 16 0
BBX 16 32 0 -6
BITMAP
0000
0000
0000
0000
0000
0000
7000
7000
7000
7000
7000
7000
7FF0
7FF8
703C
701C
701C
701C
701C
701C
701C
701C
701C
703C
7FF8
7FF0
0000
0000
0000
0000
0000
0000
ENDCHAR
STARTCHAR c
ENCODING 99
SWIDTH 500 0
DWIDTH 16 0
BBX 16 32 0 -6
BITMAP
0000
0000
0000
0000
0000
0000
0000
0000
0000
0000
0000
0000
1FF0
3FF8
783C
701C
7000
7000
7000
7000
7000
7000
701C
783C
3FF8
1FF0
0000
0000
0000
0000
0000
0000
ENDCHAR
STARTCHAR d
ENCODING 100
SWIDTH 500 0
DWIDTH 16 0
BBX 16 32 0 -6
BITMAP
0000
0000
0000
0000
0000
0000
001C
001C
001C
001C
001C
001C
1FFC
3FFC
781C
701C
701C
701C
701C
701C
701C
701C
701C
781C
3FFC
1FFC
0000
0000
0000
0000
0000
0000
ENDCHAR
STARTCHAR e
ENCODING 101
SWIDTH 500 0
DWIDTH 16 0
BBX 16 32 0 -6
BITMAP
0000
0000
0000
0000
0000
0000
0000
0000
0000
0000
0000
0000
1FF0
3FF8
783C
701C
701C
701C
7FFC
7FFC
7000
7000
7000
781C
3FFC
1FF8
0000
0000
0000
0000
0000
0000
ENDCHAR
STARTCHAR f
ENCODING 102
SWIDTH 500 0
DWIDTH 16 0
BBX 16 32 0 -6
BITMAP
0000
0000
0000
0000
0000
0000
00FE
01FE
03C0
0380
0380
0380
3FF8
3FF8
0380
0380
0380
0380
0380
0380
0380
0380
0380
0380
0380
0380
0000
0000
0000
0000
0000
0000
ENDCHAR
STARTCHAR g
ENCODING 103
SWIDTH 500 0
DWIDTH 16 0
BBX 16 32 0 -6
BITMAP
0000
0000
0000
0000
0000
0000
0000
0000
0000
0000
0000
0000
1FFC
3FFC
781C
701C
701C
701C
701C
701C
701C
701C
701C
781C
3FFC
1FFC
001C
001C
001C
3FF8
3FF0
0000
ENDCHAR
STARTCHAR h
ENCODING 104
SWIDTH 500 0
DWIDTH 16 0
BBX 16 32 0 -6
BITMAP
0000
0000
0000
0000
0000
0000
7000
7000
7000
7000
7000
7000
7FF0
7FF8
703C
701C
701C
701C
701C
701C
701C
701C
701C
701C
701C
701C
0000
0000
0000
0000
0000
0000
ENDCHAR
STARTCHAR i
ENCODING 105
SWIDTH 500 0
DWIDTH 16 0
BBX 16 32 0 -6
BITMAP
0000
0000
0000
0000
0000
0000
0380
0380
0380
0380
0000
0000
0F80
0F80
0380
0380
0380
0380
0380
0380
0380
0380
0380
0380
0FE0
0FE0
0000
0000
0000
0000
0000
0000
ENDCHAR
STARTCHAR j
ENCODING 106
SWIDTH 500 0
DWIDTH 16 0
BBX 16 32 0 -6
BITMAP
0000
0000
0000
0000
0000
0000
0038
0038
0038
0038
0000
0000
00F8
00F8
0038
0038
0038
0038
0038
0038
0038
0038
0038
0038
0038
0038
3838
3838
3C78
1FF0
0FE0
0000
ENDCHAR
STARTCHAR k
ENCODING 107
SWIDTH 500 0
DWIDTH 16 0
BBX 16 32 0 -6
BITMAP
0000
0000
0000
0000
0000
0000
3800
3800
3800
3800
3800
3800
381C
3838
3870
38E0
39C0
3B80
3F00
3F00
3B80
39C0
38E0
3870
3838
381C
0000
0000
0000
0000
0000
0000
ENDCHAR
STARTCHAR l
ENCODING 108
SWIDTH 500 0
DWIDTH 16 0
BBX 16 32 0 -6
BITMAP
0000
0000
0000
0000
0000
0000
0F80
0F80
0380
0380
0380
0380
0380
0380
0380
0380
0380
0380
0380
0380
0380
0380
0380
0380
0FE0
0FE0
0000
0000
0000
0000
0000
0000
ENDCHAR
STARTCHAR m
ENCODING 109
SWIDTH 500 0
DWIDTH 16 0
BBX 16 32 0 -6
BITMAP
0000
0000
0000
0000
0000
0000
0000
0000
0000
0000
0000
0000
7FF0
7FF8
73BC
739C
739C
739C
739C
739C
739C
739C
739C
739C
739C
739C
0000
0000
0000
0000
0000
0000
ENDCHAR
STARTCHAR n
ENCODING 110
SWIDTH 500 0
DWIDTH 16 0
BBX 16 32 0 -6
BITMAP
0000
0000
0000
0000
0000
0000
0000
0000
0000
0000
0000
0000
7FF0
7FF8
703C
701C
701C
701C
701C
701C
701C
701C
701C
701C
701C
701C
0000
0000
0000
0000
0000
0000
ENDCHAR
STARTCHAR o
ENCODING 111
SWIDTH 500 0
DWIDTH 16 0
BBX 16 32 0 -6
BITMAP
0000
0000
0000
0000
0000
0000
0000
0000
0000
0000
0000
0000
1FF0
3FF8
783C
701C
701C
701C
701C
701C
701C
701C
701C
783C
3FF8
1FF0
0000
0000
0000
0000
0000
0000
ENDCHAR
STARTCHAR p
ENCODING 112
SWIDTH 500 0
DWIDTH 16 0
BBX 16 32 0 -6
BITMAP
0000
0000
0000
0000
0000
0000
0000
0000
0000
0000
0000
0000
7FF0
7FF8
703C
701C
701C
701C
701C
701C
701C
701C
701C
703C
7FF8
7FF0
7000
7000
7000
7000
7000
0000
ENDCHAR
STARTCHAR q
ENCODING 113
SWIDTH 500 0
DWIDTH 16 0
BBX 16 32 0 -6
BITMAP
0000
0000
0000
0000
0000
0000
0000
0000
0000
0000
0000
0000
1FFC
3FFC
781C
701C
701C
701C
701C
701C
701C
701C
701C
781C
3FFC
1FFC
001C
001C
001C
001C
001C
0000
ENDCHAR
STARTCHAR r
ENCODING 114
SWIDTH 500 0
DWIDTH 16 0
BBX 16 32 0 -6
BITMAP
0000
0000
0000
0000
0000
0000
0000
0000
0000
0000
0000
0000
73FC
77FC
7E00
7C00
7800
7000
7000
7000
7000
7000
7000
7000
7000
7000
0000
0000
0000
0000
0000
0000
ENDCHAR
STARTCHAR s
ENCODING 115
SWIDTH 500 0
DWIDTH 16 0
BBX 16 32 0 -6
BITMAP
0000
0000
0000
0000
0000
0000
0000
0000
0000
0000
0000
0000
1FF0
3FF8
783C
7000
7000
7800
3FF0
1FF8
003C
001C
001C
783C
3FF8
1FF0
0000
0000
0000
0000
0000
0000
ENDCHAR
STARTCHAR t
ENCODING 116
SWIDTH 500 0
DWIDTH 16 0
BBX 16 32 0 -6
BITMAP
0000
0000
0000
0000
0000
0000
0700
0700
0700
0700
0700
0700
7FF0
7FF0
0700
0700
0700
0700
0700
0700
0700
0700
0700
0780
03FC
01FC
0000
0000
0000
0000
0000
0000
ENDCHAR
STARTCHAR u
ENCODING 117
SWIDTH 500 0
DWIDTH 16 0
BBX 16 32 0 -6
BITMAP
0000
0000
0000
0000
0000
0000
0000
0000
0000
0000
0000
0000
701C
701C
701C
701C
701C
701C
701C
701C
701C
701C
701C
781C
3FFC
1FFC
0000
0000
0000
0000
0000
0000
ENDCHAR
STARTCHAR v
ENCODING 118
SWIDTH 500 0
DWIDTH 16 0
BBX 16 32 0 -6
BITMAP
0000
0000
0000
0000
0000
0000
0000
0000
0000
0000
0000
0000
701C
701C
701C
3838
3838
3838
1C70
1C70
1C70
0EE0
0EE0
07C0
07C0
07C0
0000
0000
0000
0000
0000
0000
ENDCHAR
STARTCHAR w
ENCODING 119
SWIDTH 500 0
DWIDTH 16 0
BBX 16 32 0 -6
BITMAP
0000
0000
0000
0000
0000
0000
0000
0000
0000
0000
0000
0000
701C
701C
701C
701C
739C
739C
739C
739C
739C
739C
739C
7BBC
3FF8
1FF0
0000
0000
0000
0000
0000
0000
ENDCHAR
STARTCHAR x
ENCODING 120
SWIDTH 500 0
DWIDTH 16 0
BBX 16 32 0 -6
BITMAP
0000
0000
0000
0000
0000
0000
0000
0000
0000
0000
0000
0000
701C
701C
701C
3838
1C70
0EE0
07C0
07C0
0EE0
1C70
3838
701C
701C
701C
0000
0000
0000
0000
0000
0000
ENDCHAR
STARTCHAR y
ENCODING 121
SWIDTH 500 0
DWIDTH 16 0
BBX 16 32 0 -6
BITMAP
0000
0000
0000
0000
0000
0000
0000
0000
0000
0000
0000
0000
701C
701C
701C
701C
701C
701C
701C
701C
701C
701C
701C
781C
3FFC
1FFC
001C
001C
003C
3FF8
3FF0
0000
ENDCHAR
STARTCHAR z
ENCODING 122
SWIDTH 500 0
DWIDTH 16 0
BBX 16 32 0 -6
BITMAP
0000
0000
0000
0000
0000
0000
0000
0000
0000
0000
0000
0000
7FFC
7FFC
0038
0070
00E0
01C0
0380
0700
0E00
1C00
3800
7000
7FFC
7FFC
0000
0000
0000
0000
0000
0000
ENDCHAR
STARTCHAR braceleft
ENCODING 123
SWIDTH 500 0
DWIDTH 16 0
BBX 16 32 0 -6
BITMAP
0000
0000
0000
0000
0000
0000
01F0
03F0
0780
0700
0700
0700
0700
0700
0700
3E00
3E00
0700
0700
0700
0700
0700
0700
0780
03F0
01F0
0000
0000
0000
0000
0000
0000
ENDCHAR
STARTCHAR bar
ENCODING 124
SWIDTH 500 0
DWIDTH 16 0
BBX 16 32 0 -6
BITMAP
0000
0000
0000
0000
0000
0000
0380
0380
0380
0380
0380
0380
0380
0380
0380
0380
0380
0380
0380
0380
0380
0380
0380
0380
0380
0380
0000
0000
0000
0000
0000
0000
ENDCHAR
STARTCHAR braceright
ENCODING 125
SWIDTH 500 0
DWIDTH 16 0
BBX 16 32 0 -6
BITMAP
0000
0000
0000
0000
0000
0000
3E00
3F00
0780
0380
0380
0380
0380
0380
0380
01F0
01F0
0380
0380
0380
0380
0380
0380
0780
3F00
3E00
0000
0000
0000
0000
0000
0000
ENDCHAR
STARTCHAR asciitilde
ENCODING 126
SWIDTH 500 0
DWIDTH 16 0
BBX 16 32 0 -6
BITMAP
0000
0000
0000
0000
1E1C
3F1C
779C
73DC
71F8
70F0
0000
0000
0000
0000
0000
0000
0000
0000
0000
0000
0000
0000
0000
0000
0000
0000
0000
0000
0000
0000
0000
0000
ENDCHAR
ENDFONT
